<svg width="311" height="38" viewBox="0 0 311 38" fill="none" xmlns="http://www.w3.org/2000/svg">
<path d="M5.58594 19.6387L8.94531 10.7812H12.5684L7.77344 22.0605C7.59115 22.4772 7.37956 22.8743 7.13867 23.252C6.9043 23.6296 6.62435 23.9648 6.29883 24.2578C5.97982 24.5508 5.60221 24.7819 5.16602 24.9512C4.72982 25.1204 4.21875 25.2051 3.63281 25.2051C3.48958 25.2051 3.3138 25.2018 3.10547 25.1953C2.90365 25.1953 2.72786 25.1921 2.57812 25.1855L2.51953 22.5293C2.60417 22.5488 2.72135 22.5618 2.87109 22.5684C3.02083 22.5684 3.12826 22.5684 3.19336 22.5684C3.58398 22.5684 3.89323 22.5228 4.12109 22.4316C4.34896 22.334 4.52799 22.1908 4.6582 22.002C4.79492 21.8066 4.91211 21.5592 5.00977 21.2598L5.58594 19.6387ZM3.68164 10.7812L6.5918 16.9531L7.70508 20.8984H5.24414L0.0390625 10.7812H3.68164ZM17.1387 10.7812V25H13.7207V10.7812H17.1387ZM25.3418 10.7812L20.2344 19.375H16.543L16.1328 16.2793H18.4668L21.2012 10.7812H25.3418ZM21.7871 25L18.457 18.7793L20.9473 16.4844L25.8301 25H21.7871ZM32.3633 20.1758H28.8281V17.5293H32.3633C32.8451 17.5293 33.2357 17.4479 33.5352 17.2852C33.8346 17.1224 34.0527 16.8978 34.1895 16.6113C34.3327 16.3184 34.4043 15.9896 34.4043 15.625C34.4043 15.2344 34.3327 14.873 34.1895 14.541C34.0527 14.209 33.8346 13.9421 33.5352 13.7402C33.2357 13.5319 32.8451 13.4277 32.3633 13.4277H30.1172V25H26.6895V10.7812H32.3633C33.5026 10.7812 34.4824 10.9896 35.3027 11.4062C36.1296 11.8229 36.7643 12.3958 37.207 13.125C37.6497 13.8477 37.8711 14.6745 37.8711 15.6055C37.8711 16.5234 37.6497 17.3242 37.207 18.0078C36.7643 18.6914 36.1296 19.2253 35.3027 19.6094C34.4824 19.987 33.5026 20.1758 32.3633 20.1758ZM44.0039 13.7695L40.5371 25H36.8555L42.0801 10.7812H44.4141L44.0039 13.7695ZM46.875 25L43.3984 13.7695L42.9492 10.7812H45.3125L50.5664 25H46.875ZM46.7383 19.6973V22.3438H39.4434V19.6973H46.7383ZM55.2539 10.7812V25H51.8359V10.7812H55.2539ZM49.502 8.64258C49.502 8.27799 49.6484 7.97201 49.9414 7.72461C50.2344 7.4707 50.5794 7.34375 50.9766 7.34375C51.3802 7.34375 51.7253 7.4707 52.0117 7.72461C52.3047 7.97201 52.4512 8.27799 52.4512 8.64258C52.4512 9.00716 52.3047 9.31641 52.0117 9.57031C51.7253 9.81771 51.3802 9.94141 50.9766 9.94141C50.5794 9.94141 50.2344 9.81771 49.9414 9.57031C49.6484 9.31641 49.502 9.00716 49.502 8.64258ZM54.5703 8.64258C54.5703 8.27799 54.7168 7.97201 55.0098 7.72461C55.3027 7.4707 55.6478 7.34375 56.0449 7.34375C56.4486 7.34375 56.7936 7.4707 57.0801 7.72461C57.373 7.97201 57.5195 8.27799 57.5195 8.64258C57.5195 9.00716 57.373 9.31641 57.0801 9.57031C56.7936 9.81771 56.4486 9.94141 56.0449 9.94141C55.6478 9.94141 55.3027 9.81771 55.0098 9.57031C54.7168 9.31641 54.5703 9.00716 54.5703 8.64258ZM67.2461 16.4258V19.0625H59.9512V16.4258H67.2461ZM61.0938 10.7812V25H57.666V10.7812H61.0938ZM69.5508 10.7812V25H66.1328V10.7812H69.5508ZM79.8145 20.1855H83.2324C83.1868 21.1751 82.9199 22.0475 82.4316 22.8027C81.9434 23.5579 81.2663 24.1471 80.4004 24.5703C79.541 24.987 78.5254 25.1953 77.3535 25.1953C76.403 25.1953 75.5534 25.0358 74.8047 24.7168C74.0625 24.3978 73.431 23.9388 72.9102 23.3398C72.3958 22.7409 72.002 22.015 71.7285 21.1621C71.4616 20.3092 71.3281 19.349 71.3281 18.2812V17.5098C71.3281 16.4421 71.4681 15.4818 71.748 14.6289C72.0345 13.7695 72.4382 13.0404 72.959 12.4414C73.4863 11.8359 74.1178 11.3737 74.8535 11.0547C75.5892 10.7357 76.4062 10.5762 77.3047 10.5762C78.5417 10.5762 79.5866 10.7975 80.4395 11.2402C81.2923 11.6829 81.9531 12.2917 82.4219 13.0664C82.8906 13.8346 83.1673 14.7103 83.252 15.6934H79.834C79.821 15.1595 79.7298 14.7135 79.5605 14.3555C79.3913 13.9909 79.1243 13.7174 78.7598 13.5352C78.3952 13.3529 77.9102 13.2617 77.3047 13.2617C76.8815 13.2617 76.5137 13.3398 76.2012 13.4961C75.8887 13.6523 75.6283 13.8997 75.4199 14.2383C75.2116 14.5768 75.0553 15.0163 74.9512 15.5566C74.8535 16.0905 74.8047 16.735 74.8047 17.4902V18.2812C74.8047 19.0365 74.8503 19.681 74.9414 20.2148C75.0326 20.7487 75.179 21.1849 75.3809 21.5234C75.5827 21.862 75.8431 22.1126 76.1621 22.2754C76.4876 22.4316 76.8848 22.5098 77.3535 22.5098C77.8743 22.5098 78.3138 22.4284 78.6719 22.2656C79.0299 22.0964 79.3066 21.8424 79.502 21.5039C79.6973 21.1589 79.8014 20.7194 79.8145 20.1855ZM87.002 15.6738H90.0586C91.2109 15.6738 92.2135 15.8659 93.0664 16.25C93.9193 16.6341 94.5768 17.1712 95.0391 17.8613C95.5078 18.5514 95.7422 19.3587 95.7422 20.2832C95.7422 20.9798 95.6087 21.6178 95.3418 22.1973C95.0749 22.7702 94.6908 23.2682 94.1895 23.6914C93.6947 24.1081 93.099 24.4303 92.4023 24.6582C91.7057 24.8861 90.9245 25 90.0586 25H84.8633V10.7812H88.3008V22.3633H90.0586C90.5469 22.3633 90.957 22.2689 91.2891 22.0801C91.6276 21.8913 91.8848 21.6406 92.0605 21.3281C92.2363 21.0091 92.3242 20.6543 92.3242 20.2637C92.3242 19.8861 92.2363 19.5508 92.0605 19.2578C91.8848 18.9648 91.6276 18.7337 91.2891 18.5645C90.957 18.3952 90.5469 18.3105 90.0586 18.3105H87.002V15.6738ZM100.713 10.7812V25H97.2949V10.7812H100.713ZM108.916 10.7812L103.809 19.375H100.117L99.707 16.2793H102.041L104.775 10.7812H108.916ZM105.361 25L102.031 18.7793L104.521 16.4844L109.404 25H105.361ZM116.289 13.7695L112.822 25H109.141L114.365 10.7812H116.699L116.289 13.7695ZM119.16 25L115.684 13.7695L115.234 10.7812H117.598L122.852 25H119.16ZM119.023 19.6973V22.3438H111.729V19.6973H119.023Z" fill="#F0B61F"/>
<path d="M131.855 10.7812L134.18 15.5078L136.504 10.7812H140.41L136.445 17.832L140.518 25H136.572L134.18 20.1855L131.787 25H127.832L131.914 17.832L127.939 10.7812H131.855ZM147.676 13.7695L144.209 25H140.527L145.752 10.7812H148.086L147.676 13.7695ZM150.547 25L147.07 13.7695L146.621 10.7812H148.984L154.238 25H150.547ZM150.41 19.6973V22.3438H143.115V19.6973H150.41ZM160.996 10.7812V25H157.568V10.7812H160.996ZM165.273 10.7812V13.4277H153.389V10.7812H165.273ZM171.562 13.7695L168.096 25H164.414L169.639 10.7812H171.973L171.562 13.7695ZM174.434 25L170.957 13.7695L170.508 10.7812H172.871L178.125 25H174.434ZM174.297 19.6973V22.3438H167.002V19.6973H174.297Z" fill="#25B3E0"/>
<path d="M222.291 20.5439L225.543 12.2031H227.978L223.53 22.6797C223.39 23.002 223.229 23.3154 223.047 23.6201C222.871 23.9189 222.657 24.1855 222.405 24.4199C222.153 24.6543 221.849 24.8418 221.491 24.9824C221.134 25.1172 220.7 25.1846 220.19 25.1846C220.056 25.1846 219.892 25.1787 219.698 25.167C219.511 25.1553 219.373 25.1436 219.285 25.1318L219.303 23.4004C219.373 23.4121 219.49 23.4209 219.654 23.4268C219.824 23.4326 219.947 23.4355 220.023 23.4355C220.363 23.4355 220.633 23.3799 220.832 23.2686C221.031 23.1514 221.189 22.9961 221.307 22.8027C221.43 22.6035 221.538 22.3867 221.632 22.1523L222.291 20.5439ZM219.848 12.2031L223.064 19.2871L223.697 21.5898L221.983 21.6514L217.439 12.2031H219.848ZM238.938 19.2168H235.677L235.659 17.6084H238.507C238.987 17.6084 239.395 17.5381 239.729 17.3975C240.068 17.251 240.326 17.043 240.502 16.7734C240.678 16.498 240.766 16.167 240.766 15.7803C240.766 15.3525 240.684 15.0039 240.52 14.7344C240.355 14.4648 240.104 14.2686 239.764 14.1455C239.43 14.0225 239.002 13.9609 238.48 13.9609H236.345V25H234.139V12.2031H238.48C239.184 12.2031 239.811 12.2705 240.361 12.4053C240.918 12.54 241.39 12.751 241.776 13.0381C242.169 13.3193 242.465 13.6768 242.664 14.1104C242.869 14.5439 242.972 15.0596 242.972 15.6572C242.972 16.1846 242.846 16.668 242.594 17.1074C242.342 17.541 241.97 17.8955 241.478 18.1709C240.985 18.4463 240.373 18.6104 239.641 18.6631L238.938 19.2168ZM238.841 25H234.982L235.976 23.251H238.841C239.339 23.251 239.755 23.1689 240.089 23.0049C240.423 22.835 240.672 22.6035 240.836 22.3105C241.006 22.0117 241.091 21.6631 241.091 21.2646C241.091 20.8486 241.018 20.4883 240.871 20.1836C240.725 19.873 240.493 19.6357 240.177 19.4717C239.86 19.3018 239.447 19.2168 238.938 19.2168H236.459L236.477 17.6084H239.702L240.203 18.2148C240.906 18.2383 241.483 18.3936 241.935 18.6807C242.392 18.9678 242.731 19.3398 242.954 19.7969C243.177 20.2539 243.288 20.7461 243.288 21.2734C243.288 22.0879 243.109 22.7705 242.752 23.3213C242.4 23.8721 241.894 24.291 241.231 24.5781C240.569 24.8594 239.772 25 238.841 25ZM247.428 17.3184V28.6562H245.31V15.4902H247.261L247.428 17.3184ZM253.624 20.1572V20.3418C253.624 21.0332 253.542 21.6748 253.378 22.2666C253.22 22.8525 252.982 23.3652 252.666 23.8047C252.355 24.2383 251.972 24.5752 251.515 24.8154C251.058 25.0557 250.53 25.1758 249.933 25.1758C249.341 25.1758 248.822 25.0674 248.377 24.8506C247.938 24.6279 247.565 24.3145 247.261 23.9102C246.956 23.5059 246.71 23.0312 246.522 22.4863C246.341 21.9355 246.212 21.332 246.136 20.6758V19.9639C246.212 19.2666 246.341 18.6338 246.522 18.0654C246.71 17.4971 246.956 17.0078 247.261 16.5977C247.565 16.1875 247.938 15.8711 248.377 15.6484C248.816 15.4258 249.329 15.3145 249.915 15.3145C250.513 15.3145 251.043 15.4316 251.506 15.666C251.969 15.8945 252.358 16.2227 252.675 16.6504C252.991 17.0723 253.229 17.582 253.387 18.1797C253.545 18.7715 253.624 19.4307 253.624 20.1572ZM251.506 20.3418V20.1572C251.506 19.7178 251.465 19.3105 251.383 18.9355C251.301 18.5547 251.172 18.2207 250.996 17.9336C250.82 17.6465 250.595 17.4238 250.319 17.2656C250.05 17.1016 249.725 17.0195 249.344 17.0195C248.969 17.0195 248.646 17.084 248.377 17.2129C248.107 17.3359 247.882 17.5088 247.7 17.7314C247.519 17.9541 247.378 18.2148 247.278 18.5137C247.179 18.8066 247.108 19.126 247.067 19.4717V21.1768C247.138 21.5986 247.258 21.9854 247.428 22.3369C247.598 22.6885 247.838 22.9697 248.148 23.1807C248.465 23.3857 248.869 23.4883 249.361 23.4883C249.742 23.4883 250.067 23.4062 250.337 23.2422C250.606 23.0781 250.826 22.8525 250.996 22.5654C251.172 22.2725 251.301 21.9355 251.383 21.5547C251.465 21.1738 251.506 20.7695 251.506 20.3418ZM255.021 20.3506V20.1484C255.021 19.4629 255.121 18.8271 255.32 18.2412C255.52 17.6494 255.807 17.1367 256.182 16.7031C256.562 16.2637 257.025 15.9238 257.57 15.6836C258.121 15.4375 258.742 15.3145 259.434 15.3145C260.131 15.3145 260.752 15.4375 261.297 15.6836C261.848 15.9238 262.313 16.2637 262.694 16.7031C263.075 17.1367 263.365 17.6494 263.564 18.2412C263.764 18.8271 263.863 19.4629 263.863 20.1484V20.3506C263.863 21.0361 263.764 21.6719 263.564 22.2578C263.365 22.8438 263.075 23.3564 262.694 23.7959C262.313 24.2295 261.851 24.5693 261.306 24.8154C260.761 25.0557 260.143 25.1758 259.451 25.1758C258.754 25.1758 258.13 25.0557 257.579 24.8154C257.034 24.5693 256.571 24.2295 256.19 23.7959C255.81 23.3564 255.52 22.8438 255.32 22.2578C255.121 21.6719 255.021 21.0361 255.021 20.3506ZM257.14 20.1484V20.3506C257.14 20.7783 257.184 21.1826 257.271 21.5635C257.359 21.9443 257.497 22.2783 257.685 22.5654C257.872 22.8525 258.112 23.0781 258.405 23.2422C258.698 23.4062 259.047 23.4883 259.451 23.4883C259.844 23.4883 260.184 23.4062 260.471 23.2422C260.764 23.0781 261.004 22.8525 261.191 22.5654C261.379 22.2783 261.517 21.9443 261.604 21.5635C261.698 21.1826 261.745 20.7783 261.745 20.3506V20.1484C261.745 19.7266 261.698 19.3281 261.604 18.9531C261.517 18.5723 261.376 18.2354 261.183 17.9424C260.995 17.6494 260.755 17.4209 260.462 17.2568C260.175 17.0869 259.832 17.002 259.434 17.002C259.035 17.002 258.689 17.0869 258.396 17.2568C258.109 17.4209 257.872 17.6494 257.685 17.9424C257.497 18.2354 257.359 18.5723 257.271 18.9531C257.184 19.3281 257.14 19.7266 257.14 20.1484ZM265.709 25V15.4902H267.827V23.3125H271.554V15.4902H273.681V25H265.709ZM274.973 23.3213L274.806 27.8213H272.863V25H271.721V23.3213H274.973ZM282.997 15.4902V17.1777H278.356V15.4902H282.997ZM284.658 15.4902V25H282.54V15.4902H284.658ZM277.838 15.4902H279.93L279.675 20.1924C279.64 20.8896 279.569 21.5049 279.464 22.0381C279.364 22.5654 279.229 23.0195 279.06 23.4004C278.89 23.7754 278.682 24.0801 278.436 24.3145C278.189 24.5488 277.902 24.7217 277.574 24.833C277.246 24.9443 276.877 25 276.467 25H275.808L275.799 23.2598L276.133 23.2334C276.35 23.2158 276.537 23.1602 276.695 23.0664C276.854 22.9668 276.988 22.8262 277.1 22.6445C277.217 22.4629 277.311 22.2285 277.381 21.9414C277.457 21.6543 277.516 21.3145 277.557 20.9219C277.604 20.5293 277.639 20.0723 277.662 19.5508L277.838 15.4902ZM292.27 23.0928V18.5576C292.27 18.2178 292.208 17.9248 292.085 17.6787C291.962 17.4326 291.774 17.2422 291.522 17.1074C291.276 16.9727 290.966 16.9053 290.591 16.9053C290.245 16.9053 289.946 16.9639 289.694 17.0811C289.442 17.1982 289.246 17.3564 289.105 17.5557C288.965 17.7549 288.895 17.9805 288.895 18.2324H286.785C286.785 17.8574 286.876 17.4941 287.058 17.1426C287.239 16.791 287.503 16.4775 287.849 16.2021C288.194 15.9268 288.607 15.71 289.088 15.5518C289.568 15.3936 290.107 15.3145 290.705 15.3145C291.42 15.3145 292.053 15.4346 292.604 15.6748C293.16 15.915 293.597 16.2783 293.913 16.7646C294.235 17.2451 294.396 17.8486 294.396 18.5752V22.8027C294.396 23.2363 294.426 23.626 294.484 23.9717C294.549 24.3115 294.64 24.6074 294.757 24.8594V25H292.586C292.486 24.7715 292.407 24.4814 292.349 24.1299C292.296 23.7725 292.27 23.4268 292.27 23.0928ZM292.577 19.2168L292.595 20.5264H291.074C290.682 20.5264 290.336 20.5645 290.037 20.6406C289.738 20.7109 289.489 20.8164 289.29 20.957C289.091 21.0977 288.941 21.2676 288.842 21.4668C288.742 21.666 288.692 21.8916 288.692 22.1436C288.692 22.3955 288.751 22.627 288.868 22.8379C288.985 23.043 289.155 23.2041 289.378 23.3213C289.606 23.4385 289.882 23.4971 290.204 23.4971C290.638 23.4971 291.016 23.4092 291.338 23.2334C291.666 23.0518 291.924 22.832 292.111 22.5742C292.299 22.3105 292.398 22.0615 292.41 21.8271L293.096 22.7676C293.025 23.0078 292.905 23.2656 292.735 23.541C292.565 23.8164 292.343 24.0801 292.067 24.332C291.798 24.5781 291.473 24.7803 291.092 24.9385C290.717 25.0967 290.283 25.1758 289.791 25.1758C289.17 25.1758 288.616 25.0527 288.13 24.8066C287.644 24.5547 287.263 24.2178 286.987 23.7959C286.712 23.3682 286.574 22.8848 286.574 22.3457C286.574 21.8418 286.668 21.3965 286.855 21.0098C287.049 20.6172 287.33 20.2891 287.699 20.0254C288.074 19.7617 288.531 19.5625 289.07 19.4277C289.609 19.2871 290.225 19.2168 290.916 19.2168H292.577ZM301.234 20.9307H298.193L298.176 19.4365H300.672C301.082 19.4365 301.419 19.3955 301.683 19.3135C301.952 19.2314 302.151 19.1084 302.28 18.9443C302.409 18.7744 302.474 18.5693 302.474 18.3291C302.474 18.1299 302.436 17.957 302.359 17.8105C302.283 17.6582 302.166 17.5352 302.008 17.4414C301.855 17.3418 301.662 17.2715 301.428 17.2305C301.199 17.1836 300.933 17.1602 300.628 17.1602H298.896V25H296.778V15.4902H300.628C301.237 15.4902 301.785 15.543 302.271 15.6484C302.764 15.7539 303.183 15.915 303.528 16.1318C303.874 16.3486 304.138 16.624 304.319 16.958C304.507 17.2861 304.601 17.6729 304.601 18.1182C304.601 18.4111 304.536 18.6865 304.407 18.9443C304.284 19.2021 304.1 19.4307 303.854 19.6299C303.607 19.8291 303.306 19.9932 302.948 20.1221C302.591 20.2451 302.181 20.3213 301.718 20.3506L301.234 20.9307ZM301.234 25H297.578L298.422 23.3301H301.234C301.609 23.3301 301.92 23.2832 302.166 23.1895C302.412 23.0957 302.594 22.9609 302.711 22.7852C302.834 22.6035 302.896 22.3896 302.896 22.1436C302.896 21.8916 302.837 21.6748 302.72 21.4932C302.603 21.3115 302.421 21.1738 302.175 21.0801C301.935 20.9805 301.621 20.9307 301.234 20.9307H298.817L298.835 19.4365H301.709L302.315 20.0166C302.919 20.0576 303.42 20.1865 303.818 20.4033C304.217 20.6201 304.516 20.8926 304.715 21.2207C304.914 21.5488 305.014 21.9062 305.014 22.293C305.014 22.7383 304.929 23.1309 304.759 23.4707C304.595 23.8105 304.349 24.0947 304.021 24.3232C303.698 24.5459 303.303 24.7158 302.834 24.833C302.365 24.9443 301.832 25 301.234 25ZM309.109 15.4902V25H306.982V15.4902H309.109ZM306.842 12.9941C306.842 12.6719 306.947 12.4053 307.158 12.1943C307.375 11.9775 307.674 11.8691 308.055 11.8691C308.43 11.8691 308.726 11.9775 308.942 12.1943C309.159 12.4053 309.268 12.6719 309.268 12.9941C309.268 13.3105 309.159 13.5742 308.942 13.7852C308.726 13.9961 308.43 14.1016 308.055 14.1016C307.674 14.1016 307.375 13.9961 307.158 13.7852C306.947 13.5742 306.842 13.3105 306.842 12.9941Z" fill="black"/>
<path d="M197 0V37.5" stroke="black" stroke-width="2"/>
</svg>
